<?xml version="1.0" encoding="UTF-8"?>
<svg version="1.1" viewBox="0 0 1280 1052"  xmlns="http://www.w3.org/2000/svg">
<path transform="translate(0)" d="m0 0h1280v1052h-1280z" fill="#14591E"/>
<path transform="translate(467,441)" d="m0 0h311v17l-1 2-1 160-4 3-4 1h-270l-1 1h-22l-7-5-1-2z" fill="#C7E6BC"/>
<path transform="translate(438,667)" d="m0 0h366l9 4 42 28 44 29 10 7-1 4-134 1-1 2h141v13l-3 1-2 4-3 3-15 2h-538l-14-2-7-6-2-5v-10h145v-2l-141-1 1-4 99-66z" fill="#91C878"/>
<path transform="translate(430,78)" d="m0 0h9l8 4 3 7 6 31 2 13 7 37 13 74 1 9-6 9h-2v2l-15 10-17 9h-8l-10-9-8-8-8-7-10-10h-1l9 40v9l-7 8-10 7-20 11h-13l-11-10-11-9-10-9-10-8-30-26-28-24-11-10-11-9-6-6v-7l7-10 7-8 8-7 17-12 10-5 3-1h11l7 4 9 12 14 20 11 16 13 18v2h2l-13-29-13-28-7-17v-10l6-9 7-6 18-10 3-1h11l8 7 12 18 14 20 12 17 6 9v-2l-13-29-18-39-1-7 5-8 11-11 17-12 17-9z" fill="#E5C247"/>
<path transform="translate(70,446)" d="m0 0h14l10 9 7 7 14 19 11 15 1 4 10-4 14-8 21-10 10-3 4-2h12l6 4 5 9 4 10 4 17 1 7v21l-6 5-21 6-16 3-14 2 5 6 11 4 10 2 7 2 6 2 1 2-1 20-3 17-5 20-5 10-2 2h-9l-24-6-37-9-9-3-21-5-10-3-24-6-26-7-5-5-2-8v-27l2-12 8-16 5-4 10-1 21 5 13 4-5-4-22-16-4-4-8-7-3-3v-2h-2l-1-6 4-11 7-14 10-14 8-9z" fill="#E5C247"/>
<path transform="translate(467,441)" d="m0 0h311v17l-3 2-31 3-30 5-30 8-29 9-20 8-22 11-14 8-21 14-14 11-14 12-13 13-8 10-10 13-12 19-6 12-3 8-1 1h-22l-7-5-1-2z" fill="#E2F3DD"/>
<path transform="translate(1090,260)" d="m0 0h12l5 5 10 14 13 18 10 13 12 17 13 18 9 13v8l-4 6-11 12-13 11-10 6-21 1-36-4-22-4 6 9 13 18 10 13 1 1-1 7-8 9-11 9-13 8-12 5-3 1h-8l-7-7-12-17-14-19-13-18-28-38-4-6v-8l7-9 9-10 15-13 3-2h26l37 4 17 3h4l-13-18-12-17-2-4 1-5 7-8 13-10 14-8z" fill="#E5C247"/>
<path transform="translate(1214,478)" d="m0 0h10l5 4 5 13 6 24 16 74 2 10-1 5-7 4-12 3-11 2-11 1h-9l-5-5-3-12-5-32v-11l-15 4 7 24 5 20v7l-4 4-14 4-12 2h-14l-5-3-2-2-8-38v-8l-11 3h-3l8 26 8 31-1 6-4 3-19 5-5 1h-25l-4-9-23-104-1-7v-10l5-4 43-10 85-19z" fill="#E5C247"/>
<path transform="translate(783,75)" d="m0 0h17l18 3 18 5 20 8 10 6 7 7 1 3v15l-5 13-7 12-4 5-5 4h-11l-11-6-5-2-12-6-8-3h-8l-8 5-6 10-5 11-4 17v9l3 10 3 4 3-6 5-15 4-4 9-3h23l14 4 10 4 6 7 1 2v10l-16 55-4 11-2 2h-13l-24-5-18-6-6-4v-13l1-5-10 10-8 4-11 1-15-4-10-5-8-6-9-13-5-14-1-8v-20l4-23 6-21 7-17 7-12 9-11 6-7 15-10 11-4 14-3z" fill="#E5C247"/>
<path transform="translate(388,442)" d="m0 0h72l1 132 1 46 2 7 12 3h294l7-3 5-5 1-3 1-177h72l3 9v21l-5 14-8 11-8 9-14 10-17 9-1 112-4 8-7 6-6 2h-334l-8-3-7-8-1-2-1-12v-103l-6-2-11-6-16-12-9-9-8-14-4-13v-13l3-13z" fill="#91C878"/>
<path transform="translate(599,322)" d="m0 0h30l9 2 12 6 6 7 2 5-1 7-6 9-3 3-1 3 17-1 39-4h33l18 3 18 6 15 8 11 8 1 5-145 15-64 7-142 15-11 1h-16l3-5 10-10 18-13 14-8 19-7 19-4 46-5 20-2-13-13-1-3v-8l4-8 8-7 16-8z" fill="#91C878"/>
<path transform="translate(140,300)" d="m0 0h12l10 6 23 16 17 12 22 15 17 12 44 30 3 3v7l-11 21-14 21-9 11-3 2-7-1-12-9-19-13-28-19-17-12-16-11-17-12-17-11-7-6v-15l4-13 8-16 8-11 7-6z" fill="#E5C247"/>
<path transform="translate(960,160)" d="m0 0h12l16 5 16 8 10 8 8 9v12l-9 12-14 19-11 16-14 19-12 17-13 18-13 19-10 13-5 2-19-9-19-13-13-10-6-6v-6l11-15 12-17 10-14 14-20 26-36 14-20 8-10z" fill="#E5C247"/>
<path transform="translate(610,53)" d="m0 0h11l9 2 6 5 2 16 8 140v15l-5 3-25 4-26 3h-11l-4-2-2-3-2-13-8-138v-14l7-6 8-5 9-3 17-3z" fill="#E5C247"/>
<path transform="translate(570,714)" d="m0 0h103l15 9 14 10 1 4-2 3h-158l-2-6 11-8z" fill="#14591E"/>
<path transform="translate(894,389)" d="m0 0h16l13 5 10 9 5 10v15l-4 8-7 8-8 4-7 2-9 1-17-7-23-12-16-4h-13l-13 2 2-5 9-8 11-4h13l15 6 19 9 4 1h13l6-3 2-5-1-7-5-7-9-4-7 1-4 4v11h-4l-4-4-3-7 1-7 4-7z" fill="#91C878"/>
<path transform="translate(829,357)" d="m0 0h17l6 3 5 4 5 9 1 4v9l-4 9-5 5-8 5-4 1-19 1-12 1v2l-13 5-9 9h-2l1-10 3-6 4-5 9-5 8-2 16-2 10-3 5-5v-8l-5-5-3-1h-8l-4 4v10h3v4l-7-1-7-6v-10l3-6 7-7z" fill="#91C878"/>
<path transform="translate(813,458)" d="m0 0h20l4 3v13l-5 10-7 7-11 7h-3v-39z" fill="#14591E"/>
<path transform="translate(408,459)" d="m0 0h25v39l-5-1-9-6-6-5-4-6-2-6v-13z" fill="#14591E"/>
<path transform="translate(625,332)" d="m0 0h10l9 5 3 3-1 5h-9l-7-4-5-6z" fill="#14591E"/>
<path transform="translate(769,620)" d="m0 0h4l-1 3h-27v-2z" fill="#E1F3DC"/>
<path transform="translate(772,441)" d="m0 0h6v17h-2l-1-13-3-2z" fill="#C6E6BB"/>
<path transform="translate(324,136)" d="m0 0v3l-9 9v-3l6-7z" fill="#91C878"/>
</svg>
