<?xml version="1.0" encoding="UTF-8"?>
<svg version="1.1" viewBox="0 0 2048 1201" xmlns="http://www.w3.org/2000/svg">
<path transform="translate(749,647)" d="m0 0 495 1v25l-2 4v254l-5 5-5 2-6 1-94 1h-332l-3-2-1 2h-36l-9-6-3-4v-282z" fill="#C8E7BD"/>
<path transform="translate(706,1008)" d="m0 0h577l14 5 43 29 11 7 69 46 22 15 11 7 1 1v5l-216 1-1 4h224l1 1v19l-1 2h-2l-2 4-7 7-2 1-9 1h-13v2h-861l-1-1-21-2-6-4-6-7-3-9v-13l187-1h45l-1-3-8-1-217-1 1-4 10-7 11-7 15-10 10-7 25-16 13-9 39-26 20-13 15-10 4-4 7-1zm208 75-10 7-30 20-8 5 1 7 2 3h252l4-5-1-5-14-10-17-11-18-11z" fill="#91C878"/>
<path transform="translate(692,66)" d="m0 0 10 1 11 4 4 5 4 15 5 32 4 16v8l4 15 5 30 4 21 6 33 2 12 12 68 3 20-4 7-6 7h-2l-1 3-6 4-10 7-13 8-14 7-7 4-4 1h-8l-6-4-18-18-8-7-19-19-8-7-3-1 3 13 5 22 8 36v8l-8 10-13 10-20 12-17 9-6 2h-14l-9-7-10-9-14-12-11-9-10-9-10-8-10-9-11-9-12-11-11-9-28-24-10-9-10-8-9-9-11-9-13-11-8-7-7-7-3-2v-10l7-11 13-15 15-14 11-8 15-10 11-7 12-4 6-1h9l7 3 5 4 9 11 9 13 10 14 10 15 12 17 11 15 11 16 5 7 3 1-4-11-4-8-14-32-13-27-11-25-8-20v-9l5-10 10-11 8-6 10-6 14-8 12-4h11l6 3 7 7 8 12 9 13 7 10 9 13 11 16 13 18 12 17 4 6 4 2-7-15-12-27-13-28-12-26-10-22-1-7 6-12 16-16 8-6 15-11 21-13 12-6z" fill="#E8C347"/>
<path transform="translate(114,655)" d="m0 0h19l11 8 12 13 7 8 15 20 10 13 13 19 3 5 3 1 13-7 10-6 16-8 19-9 10-5 10-2v-2h5l2-2 6-2 15-1 7 2 6 5 5 8 7 15 3 10 2 7 4 21 1 9v32l-6 5-4 3-5 1-13 4-8 2-9 2-8 2h-8l-3 2-11 1-16 2h-2l5 5 1 3 4 4 5 2 6 1v2h7v2h7l7 2 4 1v2l6-1 4 2h5v3h4l1 3-1 25-4 27-9 36-3 8-4 8-6 6h-8l-25-6-9-3-15-3-10-3-8-2-9-2-8-2-17-4-10-4-12-2-5-2-13-3-9-2-10-4-7-1-9-2-9-3-15-3-9-3-18-4-7-2-13-4-5-5-3-7-1-7-1-1v-38l2-12 1-2 1-10 2-3 1-5 8-16 6-6 4-2 11-1 10 1 4 2 5 1 7 1 3 2 6 1 15 4v2l10 1 4 1-1-1-10-7-22-15-11-8v-2l-5-2v-2l-4-2-8-6-12-12v-2l-3-1-1-9 2-8 9-20 8-14 12-18 9-10 7-7 10-6z" fill="#E8C347"/>
<path transform="translate(1750,357)" d="m0 0h11l5 3 10 13 10 15 7 9 6 8 7 10 7 9 11 15 13 18 10 14 13 18 12 17 7 10v8l-4 8-11 13-10 10-8 7-11 9-11 8-9 4-29 1-3-1-58-6-2-1-17-2-16-3 2 5 5 6 10 14 12 17 8 10 8 11 4 5v6l-8 10h-2l-2 4-3 4-3 1-5 5-8 7-11 7-10 6-10 5-10 3-9 3h-7l-8-7-26-36-14-19-16-22-10-14-11-15-14-19-11-15-14-19-2-4v-10l10-14 11-12 8-8 11-9 12-10 3-2h37l19 2 2 1 21 1 16 2 13 2 14 2 7 2h7l-12-16-8-11-3-5-10-13-9-13-3-7v-5l4-5 7-8 13-10 10-7 17-10 13-6 9-3z" fill="#E8C347"/>
<path transform="translate(749,647)" d="m0 0 495 1v25l-1 3-38 3-29 4-33 6-25 6-45 13-33 11-26 11-26 13-22 12-19 12-21 14-16 12-14 12-11 9-25 25-9 11-8 9-13 18-16 24-13 25-3 11-2 3h-36l-9-6-3-4v-282z" fill="#E3F4DE"/>
<path transform="translate(1255,62)" d="m0 0h23l23 3 30 8 28 10 17 8 13 9 7 8 3 9v15l-4 13-10 21-10 15-8 7-4 3h-14l-4-3-7-3-11-6h-4l-4-4-11-5-15-6-6-2h-9l-10 5-5 4-8 13-8 16-5 18-3 15v14l3 12 3 6 5 6 3-4 8-27 3-6 6-5 10-3 11-2h19l13 2 15 4 20 8 5 5 5 7 2 6-1 10-14 49-11 38-5 16-4 7h-19l-10-2-16-3-13-3-9-3-12-3-8-3-9-5v-2h-2v-16l3-16-11 13-6 5-12 7-10 2h-8l-12-3-9-2-12-5-14-9-5-4-9-11-7-11-5-13-2-7-2-15v-30l3-21 4-20 5-18 8-24 11-23 9-14 10-13 9-10 8-7 17-11 14-6 18-5z" fill="#E8C347"/>
<path transform="translate(1942,707)" d="m0 0h17l6 5 7 16 7 26 10 45 8 37 8 36 6 29 2 11-8 6-15 5-19 3-10 2-27 2-6-2-3-3-3-8-5-27-6-41-1-15-16 4-9 1 5 15 4 14 6 26 5 18v10l-5 5-13 5-17 3-1 1-19 2h-11l-9-2-5-6-5-23-5-22-4-21v-8l-14 4-9 1 5 17 2 7 4 12 5 19 6 21 4 18-1 6-6 5-10 3-16 4-16 3-9 1h-25l-4-2-4-11-10-44-10-47-5-22-5-23-8-36-1-8v-16l5-4 4-2 37-8 43-10 28-6 9-2 21-5 37-8 49-11z" fill="#E8C347"/>
<path transform="translate(621,648)" d="m0 0h115l1 282 4 10 2 4 4 2 11 4 19 1h443l15-1 8-4 8-7 3-9 1-281 1-1h112l4 7 3 16v19l-4 16-5 12-10 15-12 13-5 5-10 8-21 13-15 8-3 1-1 178-3 9-6 8-7 6-9 3-9 1h-523l-9-2-7-3-8-7-5-9-1-4-1-44v-135l-22-11-15-10-13-10-16-16-10-15-6-14-4-15v-19l5-22zm34 27-3 3-1 8v12l5 13 7 9 9 8 15 9 6 2v-63l-1-1zm663-1-20 1v64l4-1 11-7 12-9 8-9 5-11 2-9-1-13-4-5z" fill="#91C878"/>
<path transform="translate(968,456)" d="m0 0h29l19 3 16 6 9 6 8 9 3 8v9l-6 11-11 12-1 6 17-2 80-8 27-1 25 2 22 4 17 5 20 8 14 8 21 14 2 3-1 4-71 7-55 6-28 3-79 8-61 7-80 8-73 8-75 8-50 5-21 2h-11l1-4 7-7 7-8 15-12 20-14 19-11 19-8 15-5 24-5 21-3 80-8 10-2-1-4-11-8-8-9-3-10 2-11 6-9 5-6 11-7 15-8 18-6 14-3zm34 16-2 1 1 5 4 6 10 7 9 3h7l5-3v-5l-8-7-8-4-5-2z" fill="#91C878"/>
<path transform="translate(226,421)" d="m0 0h15l14 8 10 7 16 11 13 9 14 10 20 14 16 11 12 8 17 12 15 10 12 9 25 17 30 20 6 5v8l-12 25-9 15-7 11-12 18-9 11-4 5-7 6-8-1-12-9-12-8-17-12-23-16-21-14-16-11-14-10-13-9-15-10-18-13-30-20-11-7-10-9-3-2v-23l1-1 1-8h2v-6l2-5 9-19 6-10 10-14 11-10z" fill="#E7C348"/>
<path transform="translate(1536,198)" d="m0 0h19l18 5 19 8 17 10 12 9 9 9 5 8v16l-7 9-11 16-9 12-8 11-7 10-12 17-8 11-13 18-14 19-11 16-12 16-7 11-13 18-10 14-13 18-6 1-10-4-17-9-5-3-27-18-15-11-10-8-7-8-1-7 14-19 7-10 12-17 11-15 11-16 12-17 20-28 13-18 7-10 14-19 13-19 10-14 9-11z" fill="#E8C347"/>
<path transform="translate(976,27)" d="m0 0h17l15 3 9 8 2 10 2 33 2 37 2 32 4 72 3 55 1 14v20l-8 4-26 4-4 1-27 3-2 1-14 1-9 1h-16l-4-2h-2l-3-5-1-1-3-24-1-25-3-46-1-33-1-5-4-69-2-36-1-10v-15l7-7 6-3 8-5 3-2h4v-2h6v-2l18-3 1-1 19-2z" fill="#E8C347"/>
<path transform="translate(1434,564)" d="m0 0h20l13 4 12 6 10 9 7 9 5 13v19l-4 10-8 11-9 8-8 4-11 3-7 2h-9l-10-3-25-12-22-12-14-6-25-5h-8l-16 3-8 2h-4l2-5 12-12 11-6 10-3 8-1 14 1 19 7 16 8 19 9 12 3h12l10-4 5-5 2-6v-6l-3-8-6-8-6-4-10-4h-8l-7 4-4 6-1 9 2 2v6l-4 1-7-6-5-10-1-8 3-9 6-8 9-5 5-2z" fill="#91C878"/>
<path transform="translate(1333,512)" d="m0 0h17l11 4 10 9 6 9 3 10v14l-3 10-7 10-11 8-4 2-8 2-18 1h-9l-12 2-4 1h-7v3h-5l-2 2-4 1-10 5-8 8-6 7-3-1 2-13 4-10 7-9 9-6 7-3 15-3 18-1 1-1 8-1 1-1h5l-1-3h5l8-6 3-6-1-9-4-6-5-4-7-2h-9l-5 3-4 4-1 2v9l2 5 5 2v5h-7l-5-2-6-4-5-7v-12l4-9 7-8 7-6 10-4z" fill="#91C878"/>
<path transform="translate(1235,648)" d="m0 0h9v25l-2 2-1-1v-21h-2v-2h-5z" fill="#C8E7BD"/>
<path transform="translate(1231,934)" d="m0 0h5l1 2-5 2-41-1v-1l7-1h32z" fill="#E3F4DE"/>
<path transform="translate(751,930)" d="m0 0 4 3 10 4 8 2v1h-13l-9-6z" fill="#FBFCFA"/>
<path transform="translate(518,160)" d="m0 0 2 1-18 18v-3l10-11z" fill="#AEC667"/>
<path transform="translate(1688,389)" d="m0 0 2 1-14 14-1-2 7-8z" fill="#ACC669"/>
<path transform="translate(1536,198)" d="m0 0 3 1-5 5-6 5 2-4z" fill="#ACC668"/>
<path transform="translate(275,589)" d="m0 0" fill="#91C878"/>
<path transform="translate(320,858)" d="m0 0" fill="#91C878"/>
<path transform="translate(279,705)" d="m0 0" fill="#91C878"/>
<path transform="translate(1645,698)" d="m0 0" fill="#91C878"/>
<path transform="translate(1282,579)" d="m0 0" fill="#91C878"/>
<path transform="translate(1303,560)" d="m0 0" fill="#91C878"/>
</svg>
